<svg viewBox="0 0 32 32" xmlns="http://www.w3.org/2000/svg"><path d="m29.5 24c.2-.4.4-.8.4-1.2v-13.6c0-.4-.1-.8-.4-1.2l-13.9 8z" fill="#00599c"/><path d="m16.9 31.7 11.8-6.8c.3-.2.6-.5.9-.9l-13.9-8-13.9 8c.2.4.5.7.9.9l11.8 6.8c.7.4 1.8.4 2.5 0z" fill="#004482"/><path d="m29.5 8c-.2-.4-.5-.7-.9-.9l-11.7-6.8c-.7-.4-1.8-.4-2.5 0l-11.7 6.8c-.7.4-1.2 1.4-1.2 2.1v13.6c0 .4.1.8.4 1.2l13.9-8 13.9-8z" fill="#659ad2"/><g fill="#fff"><path d="m15.7 25.5c-5.2 0-9.5-4.3-9.5-9.5s4.2-9.5 9.5-9.5 6.5 1.8 8.2 4.7l-4.1 2.4c-.8-1.5-2.4-2.4-4.1-2.4-2.6 0-4.7 2.1-4.7 4.7s2.1 4.7 4.7 4.7 3.3-.9 4.1-2.4l4.1 2.4c-1.7 2.9-4.8 4.7-8.2 4.7z"/><path d="m25.2 15.5h-1.1v-1.1h-1.1v1.1h-1.1v1.1h1.1v1.1h1.1v-1.1h1.1z"/><path d="m29.1 15.5h-1.1v-1.1h-1.1v1.1h-1.1v1.1h1.1v1.1h1.1v-1.1h1.1z"/></g></svg>