<svg viewBox="0 0 32 32" xmlns="http://www.w3.org/2000/svg"><path d="m29.3 7.4-12.5-7.2c-.2-.2-.5-.2-.8-.2s-.6 0-.8.2l-12.4 7.2c-.4.3-.8.9-.8 1.4v14.4c0 .3 0 .6.3.9l27.6-16c-.2-.3-.4-.5-.6-.7z" fill="#9b4f96"/><path d="m2.2 24.1c.1.2.3.4.5.5l12.5 7.2c.2.1.5.2.8.2s.6 0 .8-.2l12.4-7.2c.4-.3.8-.9.8-1.4v-14.4c0-.2 0-.5-.2-.7 0 0-27.6 16.1-27.6 16.1z" fill="#68217a"/><path d="m21.5 19.1c-1.1 1.9-3.2 3.2-5.5 3.2-3.5 0-6.3-2.8-6.3-6.3s2.8-6.3 6.3-6.3 4.4 1.3 5.5 3.2l3.4-1.9c-1.8-3.1-5.1-5.2-8.9-5.2-5.6 0-10.2 4.6-10.2 10.2s4.6 10.2 10.2 10.2 7.1-2.1 8.9-5.1l-3.3-2zm3.1-2.5.2-1.1h-1.1v-1.2h1.3l.3-1.6h1.3l-.3 1.6h1l.3-1.6h1.2l-.3 1.6h.6v1.2h-.9l-.2 1.1h1.1v1.2h-1.3l-.3 1.6h-1.3l.3-1.6h-1l-.3 1.6h-1.2l.3-1.6h-.6v-1.2zm1.2 0h1l.2-1.1h-1z" fill="#fff"/></svg>