<svg viewBox="0 0 32 32" xmlns="http://www.w3.org/2000/svg" xmlns:xlink="http://www.w3.org/1999/xlink"><linearGradient id="a" gradientTransform="matrix(1 0 0 -1 0 34)" gradientUnits="userSpaceOnUse" x1="8.9" x2="23.5" y1="30.3" y2="5"><stop offset="0" stop-color="#927be5"/><stop offset="1" stop-color="#512bd4"/></linearGradient><path d="m0 10.1v11.9c0 1.5.9 2.8 2.3 3.6l11.4 5.9c1.4.7 3.2.7 4.6 0l11.4-5.9c1.4-.7 2.3-2.1 2.3-3.6v-11.9c0-1.5-.9-2.8-2.3-3.6l-11.4-5.9c-1.4-.7-3.2-.7-4.6 0l-11.4 5.9c-1.4.7-2.3 2.1-2.3 3.6z" fill="url(#a)"/><path d="m8.1 14.1v4.1c0 .4.3.8.7.9h.4c.3 0 .6-.1.8-.3s.3-.5.3-.7c0-.6.5-1 1.1-1s1.1.4 1.2 1c0 1.7-1.6 3.1-3.4 3.1-1.9 0-3.4-1.4-3.4-3.1v-4.1c0-1.7 1.5-3.1 3.4-3.1s3.4 1.4 3.4 3.1c0 .6-.5 1-1.2 1-.6 0-1.1-.5-1.1-1 0-.6-.5-1-1.1-1s-1.1.5-1.1 1zm18.2 4.1c0 .4-.3.8-.7.9-.1 0-.3 0-.4 0h-1.1v1c0 .3-.1.5-.3.7-.3.3-.8.4-1.2.2s-.7-.5-.7-.9v-1h-2.3v1c0 .6-.5 1-1.1 1-.6 0-1.1-.5-1.1-1v-1h-1.1c-.6 0-1.1-.5-1.1-1 0-.6.5-1 1.1-1h1.1v-2.1h-1.1c-.6 0-1.1-.5-1.1-1s.5-1 1.1-1h1.1v-1c0-.6.5-1 1.1-1s1.1.4 1.2 1v1h2.3v-1c0-.6.5-1 1.1-1 .3 0 .6.1.8.3s.3.5.3.7v1h1.1c.3 0 .6.1.8.3.4.4.4 1 0 1.4-.2.2-.5.3-.8.3h-1.1v2.1h1.1c.6 0 1.1.5 1.1 1zm-4.5-3.1h-2.3v2.1h2.3s0-2.1 0-2.1z" fill="#fff"/></svg>