<svg viewBox="0 0 32 32" xmlns="http://www.w3.org/2000/svg" xmlns:xlink="http://www.w3.org/1999/xlink"><radialGradient id="a" cx="16" cy="18" gradientTransform="matrix(1 0 0 -1 0 34)" gradientUnits="userSpaceOnUse" r="16"><stop offset="0" stop-color="#fff" stop-opacity=".1"/><stop offset="1" stop-color="#fff" stop-opacity="0"/></radialGradient><path d="m6.5 25.5-5.5-5.5c-.6-.7-1-1.6-1-2.5s.2-1.1.4-1.5l5.1-10.5 1.1 20z" fill="#01579b"/><path d="m25.3 6.5-5.5-5.5c-.5-.4-1.5-1-2.3-1s-1.4.1-1.9.4l-10.1 5.1 19.8 1.1z" fill="#40c4ff"/><path d="m13.1 32h13.2v-5.7l-9.9-3.1-9 3.1z" fill="#40c4ff"/><path d="m5.5 22.5c0 1.7.2 2.1 1.1 2.9l.8.8h18.9l-9.3-10.5-11.5-10.2v17.1z" fill="#29b6f6"/><path d="m22.3 5.5h-16.8l20.8 20.8h5.7v-13.1l-6.7-6.7c-.9-.9-1.8-1.1-2.9-1.1z" fill="#01579b"/><path d="m6.7 25.7c-.8-.8-1.1-1.7-1.1-3.2v-16.8l-.2-.2v17.1c0 1.5 0 1.9 1.3 3.2l.6.6-.6-.6z" fill="#fff" opacity=".2"/><path d="m31.8 13.1v13h-5.7l.2.2h5.7v-13z" fill="#263238" opacity=".2"/><path d="m25.3 6.5c-1-1-1.9-1.1-3.2-1.1h-16.6l.2.2h16.4c.6 0 2.2-.1 3.2.8z" fill="#fff" opacity=".2"/><path d="m31.8 13.1-6.5-6.5-5.5-5.5c-.5-.5-1.5-1.1-2.3-1.1s-1.4.1-1.9.4l-10.1 5.1-5.1 10.5c-.2.4-.4 1-.4 1.5 0 .9.4 1.8 1.1 2.5l5 5c.1.1.3.3.4.5l.2.2.6.6 5.5 5.5.2.2h13.3v-5.7h5.7v-13.1l-.2-.2z" fill="url(#a)" opacity=".2"/></svg>