<svg viewBox="0 0 32 32" xmlns="http://www.w3.org/2000/svg"><path d="m26.8 36.8-3-3-2 2 3 3c.5.5 1.4.5 2 0s.5-1.4 0-2zm2.8-16.8-3-3-2 2 3 3c.5.5 1.4.5 2 0s.5-1.4 0-2zm-24.1 16.8 3-3 2 2-3 3c-.5.5-1.4.5-2 0s-.5-1.4 0-2zm-3.1-16.8 3-3 2 2-3 3c-.5.5-1.4.5-2 0s-.5-1.4 0-2z" fill="#ffcc80"/><path d="m29.1 4.7c0-1.8-1.1-2.8-3-2.8s-3.5 2.4-3.5 4.2 1.8 1.4 2.8 1.4c1.9 0 3.7-1 3.7-2.8zm-26.2 0c0-1.8 1.1-2.8 3-2.8s3.5 2.4 3.5 4.2-1.8 1.4-2.8 1.4c-1.9 0-3.7-1-3.7-2.8z" fill="#4dd0e1"/><path d="m26.3 3.7c-.5 0-.9.4-.9.9s.4.9.9.9.9-.4.9-.9-.4-.9-.9-.9zm-20.6 0c-.5 0-.9.4-.9.9s.4.9.9.9.9-.4.9-.9-.4-.9-.9-.9z" fill="#424242"/><path d="m28.2 28.9c0 4.5-3 9.3-12.4 9.3s-11.8-4.9-11.8-9.3.9-5.4.9-9.3v-9.3c-.1-4.5 2.8-10.3 10.8-10.3s11.5 3.7 11.5 9.3-.2 5.1 0 9.3c.2 3.3.9 7.5.9 10.3z" fill="#4dd0e1"/><path d="m20.7 2.8c-2.1 0-3.7 1.7-3.7 3.7s1.7 3.7 3.7 3.7 3.7-1.7 3.7-3.7-1.7-3.7-3.7-3.7zm-9.3 0c-2.1 0-3.7 1.7-3.7 3.7s1.7 3.7 3.7 3.7 3.7-1.7 3.7-3.7-1.7-3.7-3.7-3.7z" fill="#f5f5f5"/><path d="m16 15.9c0 .5.4.9.9.9s.9-.4.9-.9v-2.8h-1.9v2.8zm-1.8 0c0 .5.4.9.9.9s.9-.4.9-.9v-2.8h-1.9v2.8z" fill="#eee"/><path d="m18.4 14c-.4 0-.6 0-.9-.2-.9-.3-1.9-.3-2.8 0-.3.1-.5.2-.9.2-1.2 0-1.4-.9-1.4-1.4 0-1.4 1.4-2.3 2.8-2.3h1.9c1.4 0 2.8.9 2.8 2.3s-.2 1.4-1.4 1.4z" fill="#ffcc80"/><path d="m18.8 5.6c-.5 0-.9.4-.9.9s.4.9.9.9.9-.4.9-.9-.4-.9-.9-.9zm-9.3 0c-.5 0-.9.4-.9.9s.4.9.9.9.9-.4.9-.9-.4-.9-.9-.9zm6.5 3.7c-1 0-1.9.4-1.9.9s.8.9 1.9.9 1.9-.4 1.9-.9-.8-.9-1.9-.9z" fill="#424242"/></svg>