<svg viewBox="0 0 32 32" xmlns="http://www.w3.org/2000/svg"><path d="m24.9 6.6c-1-1.7-.3-4 1.6-5 1.8-1 4.1-.5 5.1 1.2s.3 4-1.6 5c-1.8 1-4.1.5-5.1-1.2zm-17.7 0c1-1.7.3-4-1.6-5-1.8-1.1-4.1-.5-5.1 1.2s-.3 4 1.6 5c1.8 1 4.1.5 5.1-1.2z" fill="#384e54"/><path d="m16.1 0c-1.1 0-2.2 0-3.3 0-6 .3-10.8 5-10.8 11v21h28v-21c0-6-4.7-10.5-10.6-11-1.1 0-2.2-.1-3.3 0z" fill="#384e54"/><path d="m4.6 3.7c.5.3 1.8 1.2 2 1.6.2.5.2 1.1-.1 1.5-.3.6-1 .9-1.7.9-.3 0-1.7-.6-2-.8-1-.6-1.4-1.7-.8-2.7.5-.9 1.7-1.2 2.7-.7z" fill="#76e1fe"/><path d="m16.9 14.3h-1.8c-.3 0-.6.3-.6.6v2.3c0 .3.3.6.6.6h1.8c.3 0 .6-.3.6-.6v-2.3c0-.3-.3-.6-.6-.6z" fill-opacity=".3"/><path d="m16 2c-9 0-12 3.7-12 9v21h24c0-7.4 0-19 0-21 0-5.3-3-9-12-9z" fill="#76e1fe"/><path d="m27.1 3.7c-.5.3-1.8 1.2-2 1.6-.2.5-.1 1.1.1 1.5.3.6 1 .9 1.7.9.3 0 1.7-.6 2-.8 1-.6 1.4-1.7.8-2.7-.5-.9-1.7-1.2-2.7-.7z" fill="#76e1fe"/><path d="m21.2 13.6c2.6 0 4.7-2 4.7-4.6s-2-4.7-4.6-4.7c0 0 0 0-.1 0-2.6 0-4.6 2.2-4.6 4.7s2.1 4.5 4.6 4.6zm-10.9.2c2.7 0 4.9-2.1 4.9-4.8s-2.1-4.9-4.8-4.9c0 0 0 0-.1 0-2.7 0-4.8 2.2-4.8 4.9 0 2.6 2.1 4.7 4.8 4.8z" fill="#fff"/><path d="m17.1 14.6h-2.2c-.4 0-.7.3-.7.7v2.7c0 .4.3.7.7.7h2.2c.4 0 .7-.3.7-.7v-2.7c0-.4-.3-.7-.7-.7z" fill-opacity=".3"/><path d="m17.1 13.9h-2.2c-.4 0-.7.3-.7.7v2.7c0 .4.3.7.7.7h2.2c.4 0 .7-.3.7-.7v-2.7c0-.4-.3-.7-.7-.7z" fill="#fffcfb"/><path d="m20 15.2c0 .8-.9 1.3-2.1 1.2 0 0 0-.6-.3-.6-.5 0-1.1 0-1.7 0s-1.2.2-1.7 0c-.1 0-.2.6-.3.6-1.2 0-2.1-.3-2.1-1.2 0-1.2 1.8-2.2 4.1-2.2s4.1 1 4.1 2.2z" fill-opacity=".3"/><path d="m20 14.3c0 .6-.4.9-1.1 1-.3 0-.6 0-1 .1-.6 0-1.2 0-1.9 0s-1.3 0-1.9 0c-.3 0-.6 0-.8 0-.8-.1-1.3-.4-1.3-1 0-1.2 1.8-2.1 4-2.1s4 .9 4 2.1z" fill="#c38c74"/><path d="m15.9 13.8c1.1 0 2.1-.6 2.1-1.3s-.9-1.3-2.1-1.3-2.1.6-2.1 1.3.9 1.3 2.1 1.3z" fill="#23201f"/><path d="m12.4 11c1.1 0 2-.9 2-2s-.9-2-2-2-2 .9-2 2 .9 2 2 2zm10.7 0c1.1 0 2-.9 2-2s-.9-2-2-2-2 .9-2 2 .9 2 2 2z" fill="#171311"/><g fill="none" stroke="#384e54" stroke-linecap="round" stroke-width=".4"><path d="m5 5.9c-1.2-1.1-2-.8-2-.7"/><path d="m4.4 5.6c-1.2 0-1.3.6-1.3.7m23.5-.5c1.2-1.1 2-.8 2-.7"/><path d="m27.3 5.3c1.2 0 1.3.6 1.3.7"/></g></svg>