<svg viewBox="0 0 32 32" xmlns="http://www.w3.org/2000/svg"><path d="m0 29.5v-27c0-1.4 1.1-2.5 2.5-2.5h27c1.4 0 2.5 1.1 2.5 2.5v27c0 1.4-1.1 2.5-2.5 2.5h-27c-1.4 0-2.5-1.1-2.5-2.5z" fill="#ffd600"/><path d="m20.9 24c.6 1 1.3 2 2.7 2s1.8-.6 1.8-1.4-.6-1.3-2-1.9l-.7-.3c-2.1-.9-3.4-2-3.4-4.3s1.6-3.8 4.2-3.8 3.1.6 4.1 2.3l-2.2 1.4c-.5-.9-1-1.2-1.8-1.2s-1.4.5-1.4 1.2.5 1.2 1.8 1.7l.7.3c2.4 1 3.8 2.1 3.8 4.5s-2 4-4.8 4-4.2-1.3-5-3l2.3-1.5zm-10.3 0c.4.8 1.1 1.4 2.1 1.4s1.5-.4 1.5-1.8v-9.4h3v9.9c0 3-1.7 4.4-4.3 4.4s-3.9-1.6-4.6-3l2.3-1.4z" fill="#000001"/></svg>