<svg viewBox="0 0 32 32" xmlns="http://www.w3.org/2000/svg"><path d="m15.7 16.7c-.8-1.3-1.4-2.4-2.2-4.4-1.4-3.4 8.3-6.5 4.4-12.4 1.7 4.1-6.1 6.6-6.8 10-.7 3.1 4.6 6.7 4.6 6.7z" fill="#f44336"/><path d="m15.9 10.6c-.2 2 1.8 3.1 1.8 4.6 0 1.2-1.2 2.2-1.2 2.2s2.2-.4 2.9-2.3c.8-2-1.5-3.4-1.2-5 .2-1.6 4.8-4.4 4.8-4.4s-6.8.4-7.1 5z" fill="#f44336"/><g fill="#1565c0"><path d="m22.5 16.8c1.4-.3 2.6.6 2.6 1.6 0 2.3-3.2 4.5-3.2 4.5s5-.6 5-4.4-2.4-3.1-4.3-1.7zm-2.4 1.9s1.6-1.1 2-1.5c-3.8.8-12.5.9-12.5.2s2.8-1.3 2.8-1.3-6.2 0-6.2 1.7 8.1 2 14 .9z"/><path d="m19.1 20.5c-3.6 1.2-10.3.8-8.3-.8-1 0-2.4.8-2.4 1.5 0 1.5 7.2 2.6 12.5.5z"/><path d="m11.7 23c-1.3 0-2.2.8-2.2 1.5 0 1.9 7.8 2.1 10.9.2l-2-1.3c-2.3 1-8.1 1.2-6.8-.3z"/><path d="m25.8 26.1c0-.7-.8-1.1-1.1-1.3 1.8 4.3-17.9 4-17.9 1.4s1.4-1.1 2.8-.9l-1.1-.7c-2.7-.4-4.5.8-4.5 1.7 0 4.4 21.8 4.2 21.8-.3z"/><path d="m28 27.7c-3.3 3.3-11.7 4.5-20.2 2.4 8.5 3.6 20.1 1.6 20.2-2.4z"/></g></svg>