<svg viewBox="0 0 32 32" xmlns="http://www.w3.org/2000/svg"><g fill-rule="evenodd"><path d="m16 24.1c8.8 0 16-3.6 16-8.1s-7.2-8.1-16-8.1-16 3.7-16 8.1 7.2 8.1 16 8.1z" fill="#6e81b6"/><path d="m19.2 18.7.8-4.1c.2-.9 0-1.6-.4-2-.5-.4-1.2-.6-2.4-.6h-1.4l.4-2c0-.1 0-.3-.2-.3h-1.9c-.1 0-.2 0-.3.2l-.8 4.3c0-.5-.3-.9-.6-1.3-.6-.6-1.4-1-2.6-1h-3.7c-.1 0-.2 0-.3.2l-1.7 8.8v.2h.2 1.9c.1 0 .2 0 .3-.2l.4-2.1h1.4c.7 0 1.4 0 1.9-.2s1-.4 1.4-.8c.3-.3.6-.6.8-1l-.3 1.8v.2h.2 1.9c.1 0 .2 0 .3-.2l.9-4.8h1.3c.6 0 .7.1.8.2 0 0 .1.2 0 .7l-.8 3.9c0 .1 0 .3.2.3h1.9c.1 0 .2 0 .3-.2zm-8.8-3.4c-.1.6-.3 1-.7 1.3-.3.3-.9.4-1.6.4h-.8l.6-3.2h1.1c.8 0 1.1.2 1.3.3.2.2.2.6.1 1.2zm16.8-2.4c-.6-.6-1.4-1-2.6-1h-3.7c-.1 0-.2 0-.3.2l-1.7 8.8v.2s.1 0 .2 0h1.9c.1 0 .2 0 .3-.2l.4-2.1h1.4c.7 0 1.4 0 1.9-.2s1-.4 1.4-.8c.3-.3.6-.7.8-1s.4-.8.5-1.3c.2-1.1 0-2-.5-2.7zm-1.8 2.4c-.1.6-.3 1-.7 1.3-.3.3-.9.4-1.6.4h-.8l.6-3.2h1.1c.8 0 1.1.2 1.3.3.2.2.2.6.1 1.2z" fill="#fff"/><path d="m9.1 13.5c.7 0 1.2.1 1.5.4.2.3.3.7.2 1.4s-.4 1.2-.8 1.5-1 .4-1.7.4h-1.2l.7-3.7zm-4.7 7.4h1.9l.5-2.3h1.6c.7 0 1.3 0 1.8-.2s.9-.4 1.3-.8c.3-.3.6-.6.8-1s.3-.7.4-1.2c.2-1 0-1.9-.5-2.4-.5-.6-1.3-.9-2.4-.9h-3.7zm9.7-11.1h1.9l-.5 2.3h1.7c1.1 0 1.8.2 2.2.6s.5 1 .4 1.8l-.8 4.1h-1.9l.8-3.9c0-.4 0-.7 0-.9-.1-.2-.5-.2-1-.2h-1.5l-1 5h-1.9l1.7-8.8zm9.9 3.7c.7 0 1.2.1 1.5.4.2.3.3.7.2 1.4s-.4 1.2-.8 1.5-1 .4-1.7.4h-1.2l.7-3.7zm-4.7 7.4h1.9l.5-2.3h1.6c.7 0 1.3 0 1.8-.2s.9-.4 1.3-.8c.3-.3.6-.6.8-1s.3-.7.4-1.2c.2-1 0-1.9-.5-2.4-.5-.6-1.3-.9-2.4-.9h-3.7z"/></g></svg>