<svg viewBox="0 0 32 32" xmlns="http://www.w3.org/2000/svg"><path d="m16.4 0c-1.3 0-2.2.1-3.3.3-3.2.6-3.8 1.7-3.8 3.9v3.3h7.6v1.7h-11.6c-2.2 0-4.2 1-4.8 3.6-.7 2.9-.7 4.7 0 7.7.6 2.2 1.8 3.9 4 3.9h3.1v-4.3c0-2.5 2.3-5 4.9-5h6.1c2.1 0 4.2-1.6 4.2-3.7v-7.2c0-2.1-1.5-3.6-3.6-3.9 0 0-1.5-.3-2.8-.3zm-4.2 3.4c.7 0 1.3.6 1.3 1.3s-.6 1.3-1.3 1.3-1.3-.6-1.3-1.3.6-1.3 1.3-1.3z" fill="#0277bd"/><path d="m15.6 32c1.3 0 2.2-.1 3.3-.3 3.2-.6 3.8-1.7 3.8-3.9v-3.3h-7.6v-1.7h11.5c2.2 0 4.2-1 4.8-3.6.7-2.9.7-4.7 0-7.7-.6-2.2-1.8-3.9-4-3.9h-3.1v4.3c0 2.5-2.3 5-4.9 5h-6.1c-2.1 0-4.2 1.6-4.2 3.7v7.2c0 2.1 1.5 3.6 3.6 3.9 0 0 1.5.3 2.8.3zm4.2-3.4c-.7 0-1.3-.6-1.3-1.3s.6-1.3 1.3-1.3 1.3.6 1.3 1.3-.6 1.3-1.3 1.3z" fill="#ffc107"/></svg>