<svg viewBox="0 0 32 32" xmlns="http://www.w3.org/2000/svg"><path d="m32 7.1-1.8 23.1-23.1 1.8z" fill="#9b1010"/><path d="m19.6 19.6 10.7 10.7 1.8-23.1-12.4 12.4z" fill="#b71c1c"/><path d="m8.7 8.7c-7.9 7.8-11 17.5-6.9 21.5s13.7 1 21.5-6.9c7.9-7.9 10.9-17.5 6.9-21.5s-13.7-1-21.5 6.9z" fill="#c62828"/><path d="m3.6 9.8 6.2-6.2 7.1-3.6 5.3 3.6-2.7 8-8 7.1-8 2.7-3.5-5.4z" fill="#e53935"/><path d="m22.2 3.6-5.3-3.6h9.8l-4.4 3.6zm9.8 4.4-9.8-4.4-2.7 8 12.4-3.6zm-20.4 10.7 11.8 4.7-3.8-11.8zm-8 2.6 3.6 10.7 4.4-13.3-8 2.7zm-3.6-5.3v9.8l3.6-4.4z" fill="#ff5252"/></svg>