<svg viewBox="0 0 32 32" xmlns="http://www.w3.org/2000/svg"><path d="m31.8 15.6-1.3-.8c0-.1 0-.3 0-.4l1.2-1.1c.1-.1.2-.3.1-.4 0-.2-.1-.3-.3-.3l-1.5-.6c0-.1 0-.3-.1-.4l.9-1.3c0-.1.1-.3 0-.4 0-.1-.2-.3-.4-.3l-1.6-.3c0-.1-.1-.2-.2-.3l.7-1.4c0-.1 0-.3 0-.4s-.2-.2-.4-.2h-1.6s-.2-.1-.2-.2l.4-1.5c0-.2 0-.3-.1-.4s-.3-.2-.4-.1l-1.5.4s-.2-.2-.3-.2v-1.6c0-.2 0-.3-.1-.4-.1 0-.3-.1-.4 0l-1.4.7c-.1 0-.2-.1-.3-.2l-.3-1.6c0-.2-.1-.3-.3-.4-.1 0-.3 0-.4 0l-1.3.9c-.1 0-.3 0-.4-.1l-.6-1.5c0-.2-.2-.3-.3-.3-.2 0-.3 0-.4.1l-1.1 1.2c-.1 0-.3 0-.4 0l-.8-1.3c0-.1-.2-.2-.4-.2s-.3 0-.4.2l-.8 1.3c-.1 0-.3 0-.4 0l-1.1-1.2c-.1-.1-.3-.2-.4-.1-.2 0-.3.1-.3.3l-.6 1.5c-.1 0-.3 0-.4.1l-1.3-.9c-.1 0-.3-.1-.4 0-.1 0-.3.2-.3.4l-.3 1.6c-.1 0-.2.1-.3.2l-1.4-.7c-.1 0-.3 0-.4 0s-.2.2-.2.4v1.6s-.1.2-.2.2l-1.5-.4c-.2 0-.3 0-.4.1s-.2.3-.1.4l.4 1.5s-.2.2-.2.3h-1.6c-.2 0-.3 0-.4.2 0 .1-.1.3 0 .4l.7 1.4c0 .1-.1.2-.2.3l-1.6.3c-.2 0-.3.1-.4.3v.4l.9 1.3c0 .1 0 .3-.1.4l-1.5.6c-.1 0-.3.2-.3.3 0 .2 0 .3.1.4l1.2 1.1v.4l-1.3.8c-.1 0-.2.2-.2.4s0 .3.2.4l1.3.8v.4l-1.2 1.1c-.1.1-.2.3-.1.4 0 .2.1.3.3.3l1.5.6c0 .1 0 .3.1.4l-.9 1.3c0 .1-.1.3 0 .4 0 .1.2.3.4.3l1.6.3c0 .1.1.2.2.3l-.7 1.4v.4c0 .1.2.2.4.2h1.6s.2.1.2.2l-.4 1.5c0 .2 0 .3.1.4s.3.2.4.1l1.5-.4s.2.2.3.2v1.6c0 .2 0 .3.2.4.1 0 .3.1.4 0l1.4-.7c.1 0 .2.1.3.2l.3 1.6c0 .2.1.3.3.4h.4l1.3-.9c.1 0 .3 0 .4.1l.6 1.5c0 .1.2.3.3.3.2 0 .3 0 .4-.1l1.1-1.2h.4l.8 1.3c0 .1.2.2.4.2s.3 0 .4-.2l.8-1.3h.4l1.1 1.2c.1.1.3.2.4.1.2 0 .3-.1.3-.3l.6-1.5c.1 0 .3 0 .4-.1l1.3.9c.1 0 .3.1.4 0 .1 0 .3-.2.3-.4l.3-1.6c.1 0 .2-.1.3-.2l1.4.7h.4c.1 0 .2-.2.2-.4v-1.6s.1-.2.2-.2l1.5.4c.2 0 .3 0 .4-.1s.2-.3.1-.4l-.4-1.5s.2-.2.2-.3h1.6c.2 0 .3 0 .4-.1 0-.1.1-.3 0-.4l-.7-1.4c0-.1.1-.2.2-.3l1.6-.3c.2 0 .3-.1.4-.3 0-.1 0-.3 0-.4l-.9-1.3c0-.1 0-.3.1-.4l1.5-.6c.2 0 .3-.2.3-.3 0-.2 0-.3-.1-.4l-1.2-1.1c0-.1 0-.3 0-.4l1.3-.8c.1 0 .2-.2.2-.4s0-.3-.2-.4zm-9 11.2c-.5-.1-.8-.6-.7-1.1s.6-.8 1.1-.7.8.6.7 1.1-.6.8-1.1.7zm-.5-3.1c-.5-.1-.9.2-1 .7l-.5 2.2c-1.5.7-3.1 1-4.8 1s-3.4-.4-4.9-1.1l-.5-2.2c-.1-.5-.6-.8-1-.7l-2 .4c-.4-.4-.7-.8-1-1.2h9.6c.1 0 .2 0 .2-.1v-3.4s0-.1-.2-.1h-2.8v-2.1h3c.3 0 1.5 0 1.9 1.6.1.5.4 2 .6 2.5.2.6.9 1.7 1.7 1.7h4.8.2c-.3.4-.7.9-1.1 1.3l-2-.4zm-13.2 3c-.5.1-1-.2-1.1-.7s.2-1 .7-1.1 1 .2 1.1.7-.2 1-.7 1.1zm-3.7-14.7c.2.5 0 1-.5 1.3-.5.2-1 0-1.3-.5s0-1 .5-1.3c.5-.2 1 0 1.3.5zm-1.1 2.7 2-.9c.4-.2.6-.7.4-1.1l-.4-1h1.7v7.5h-3.3c-.3-1-.4-2.1-.4-3.2s0-.8 0-1.3zm9-.8v-2.2h3.9c.2 0 1.4.2 1.4 1.2s-.9 1-1.7 1h-3.7zm14.4 2v.9h-1.2c-.1 0-.2 0-.2.2v.6c0 1.3-.7 1.6-1.4 1.7-.6 0-1.3-.3-1.4-.6-.4-2-1-2.5-1.9-3.2 1.2-.7 2.4-1.8 2.4-3.3s-1.1-2.6-1.8-3.1c-1-.7-2.2-.8-2.5-.8h-12.5c1.7-1.9 4-3.2 6.5-3.7l1.5 1.5c.3.3.9.4 1.2 0l1.6-1.6c3.4.6 6.3 2.8 8 5.7l-1.1 2.5c-.2.4 0 1 .4 1.1l2.2 1v1.2zm-12.5-12.8c.4-.4 1-.3 1.3 0 .4.4.3 1 0 1.3-.4.4-1 .3-1.3 0-.4-.4-.3-1 0-1.3zm11.2 9c.2-.5.8-.7 1.3-.5s.7.8.5 1.3-.8.7-1.3.5-.7-.8-.5-1.3z"/></svg>