<svg viewBox="0 0 32 32" xmlns="http://www.w3.org/2000/svg"><path d="m32 8.9v-1c0-.7 0-1.4-.2-2.1s-.3-1.4-.7-2-.7-1.2-1.2-1.7-1.1-.9-1.7-1.2-1.3-.5-2-.7-1.4-.2-2.1-.2h-16.2c-.2 0-.4 0-.5 0-.5 0-1.1 0-1.6.2s-1 .2-1.5.4c-.2 0-.3.2-.5.2-.5.2-.9.5-1.3.9-.1.1-.3.2-.4.4-.5.5-.9 1.1-1.2 1.7s-.5 1.3-.7 2-.2 1.3-.2 2.1v16.2c0 .7 0 1.4.2 2.1s.3 1.4.7 2 .7 1.2 1.2 1.7 1.1.9 1.7 1.2 1.3.5 2 .7 1.4.2 2.1.2h16.2c.7 0 1.4 0 2.1-.2s1.4-.3 2-.7 1.2-.7 1.7-1.2.9-1.1 1.2-1.7.5-1.3.7-2 .2-1.4.2-2.1z" fill="#f05138"/><path d="m25.3 19.8c0-.1 0-.2 0-.4 1.3-5.3-1.9-11.6-7.4-14.9 2.4 3.3 3.5 7.2 2.5 10.7 0 .3-.2.6-.3.9-.1 0-.3-.2-.5-.3 0 0-5.5-3.4-11.4-9.3-.2-.2 3.2 4.7 6.9 8.7-1.8-1-6.7-4.6-9.9-7.4.4.6.8 1.3 1.3 1.8 2.6 3.3 6 7.4 10.1 10.6-2.9 1.8-6.9 1.9-10.9 0-1-.5-1.9-1-2.8-1.7 1.7 2.7 4.3 5.1 7.5 6.5 3.8 1.6 7.6 1.5 10.4 0s0 0 0 0c.1 0 .2-.2.4-.2 1.4-.7 4-1.4 5.5 1.4.4.6 1.2-3-1.6-6.4z" fill="#fff"/></svg>