<svg viewBox="0 0 32 32" xmlns="http://www.w3.org/2000/svg"><rect fill="#3178c6" height="32" rx="3.1" width="32"/><rect fill="#3178c6" height="32" rx="3.1" width="32"/><path d="m19.8 25.5v3.1c.5.3 1.1.5 1.8.6s1.4.2 2.2.2 1.5 0 2.1-.2c.7-.1 1.3-.4 1.8-.7s.9-.8 1.2-1.3.4-1.2.4-2 0-1.1-.3-1.5-.4-.8-.7-1.1-.7-.6-1.1-.9-1-.5-1.5-.7c-.4-.2-.8-.3-1.1-.5s-.6-.3-.8-.5-.4-.3-.5-.5-.2-.4-.2-.6 0-.4.2-.6.3-.3.5-.4.4-.2.7-.3c.3 0 .6-.1 1-.1s.5 0 .8 0 .6 0 .9.2c.3 0 .6.2.9.3s.5.3.8.4v-2.9c-.5-.2-1-.3-1.6-.4s-1.2-.1-1.9-.1-1.4 0-2.1.2-1.3.4-1.8.7-.9.8-1.2 1.3-.4 1.2-.4 1.9.3 1.7.8 2.4 1.4 1.2 2.5 1.7c.4.2.8.3 1.2.5s.7.3 1 .5.5.4.6.6c.2.2.2.5.2.7s0 .4-.1.6-.2.3-.4.4-.4.2-.7.3c-.3 0-.6.1-1 .1-.7 0-1.3-.1-2-.4-.7-.2-1.3-.6-1.8-1.1zm-5.3-7.7h4v-2.6h-11.1v2.6h4v11.4h3.2v-11.4z" fill="#fff" fill-rule="evenodd"/></svg>