<svg viewBox="0 0 700 700.5" xmlns="http://www.w3.org/2000/svg"><rect fill="#faf9f5" height="700.5" rx="120" width="700"/><g fill="#dea85f"><path d="m573.6 186.6-193.7-111.9c-9.1-5.2-19.4-8-29.9-8s-20.8 2.8-29.9 8l-151.3 87.3-9.7 5.6-32.8 18.9c-18.4 10.6-29.9 30.5-29.9 51.8v223.7c0 21.3 11.4 41.1 29.9 51.8l193.7 111.8c9 5.2 19.4 8 29.9 8s20.9-2.8 29.9-8l193.7-111.9c18.4-10.7 29.9-30.5 29.9-51.8v-223.7c0-21.3-11.5-41.2-29.9-51.8zm-6 275.5c0 8.5-4.6 16.4-11.9 20.7l-193.8 111.9c-7.2 4.2-16.6 4.2-23.8 0l-167.9-97-11-6.3-14.8-8.5c-7.4-4.3-12-12.2-12-20.7v-223.7c0-8.5 4.6-16.4 11.9-20.7l14.8-8.6 81.5-47 97.4-56.2c3.6-2.1 7.8-3.2 11.9-3.2s8.3 1.1 11.9 3.2l193.7 111.8c7.4 4.2 11.9 12.2 11.9 20.7v223.7z"/><path d="m488.4 388.2c-.3 14.6 1.3 29.1-5.5 42.1-6.8 12.5-20.7 21-30 16.4-19.3-10-.8-59.1-38.1-39.5-8.1 4.7-15.4 12.1-20.4 20.1-10.3 16.3-9.3 35-20.2 50.1-5.5 7.6-14.8 11.4-24.2 11.4-9.3 0-18.6-3.8-24.2-11.4-10.9-15.1-9.9-33.8-20.2-50.1-5.1-8.1-12.3-15.4-20.4-20.1-37.3-19.5-18.8 29.6-38.1 39.5-9.3 4.7-23.1-3.9-30-16.4-6.7-13-5.2-27.5-5.5-42.1v-100.5c1.7-18.9 18.9-30.7 35-40.1 12.6-7.3 36.3-21 36.3-21 21.5-13.1 43.2-14.9 67.1-14.9s45.6 1.7 67.1 14.9c0 0 23.7 13.7 36.3 21 16.1 9.3 33.3 21.2 35 40.1z"/></g></svg>