<svg viewBox="0 0 2552.5 688" xmlns="http://www.w3.org/2000/svg"><g fill="#dea85f"><path d="m1123.7 389.7c-2.1-9.1-54.1-201.5-67.5-251-1.9-6.8-8-11.5-15.1-11.5h-151.6c-8.6 0-15.7 7-15.7 15.7v395.9c0 8.6 7 15.7 15.7 15.7h85.5c8.7 0 15.7-7.1 15.7-15.7-.7-60.4-3.1-274.4-3.5-288.8 3.8 14.9 69.5 240 84.9 293.3 2 6.7 8 11.2 15 11.2h72.8c7 0 13.1-4.6 15-11.3 15.8-56 84.9-299.8 84.9-300.2 0 .2-2.9 232.4-3.7 295.8 0 8.7 6.9 15.8 15.7 15.8h85.5c8.6 0 15.7-7 15.7-15.7v-395.9c0-8.6-7-15.7-15.7-15.7h-152.1c-7.1 0-13.3 4.7-15.1 11.6-13.2 49.6-64.4 241.8-66.5 250.9q0 0 0 0z"/><path d="m1681.4 392.4c0 13.4-2.9 25.2-8.8 35.3-5.8 10.1-13.9 18.2-24 24-10.2 5.9-22.1 8.9-35.4 8.9s-25.2-2.9-35.3-8.9c-10.1-5.9-18.2-14-24-24.2-5.9-10.2-8.9-22-8.9-35.1v-249.6c0-8.6-7-15.7-15.7-15.7h-84.6c-8.6 0-15.7 7-15.7 15.7v259.3c0 32.1 7.6 60.1 22.8 83.8 15.2 23.8 36.6 42.2 64 55.3 27.5 13.1 59.9 19.6 97.2 19.6s69.4-6.5 97-19.6 49-31.5 64.2-55.3 22.8-51.8 22.8-83.8v-259.3c0-8.6-7-15.7-15.7-15.7h-84.6c-8.6 0-15.7 7-15.7 15.7v249.6z"/><path d="m2203.4 127.2h-93.3c-5.5 0-10.6 2.8-13.4 7.5-11.7 19.5-43 71.6-57.1 95.4-3 5.1-10.5 5.1-13.5 0-13.9-23.9-44.6-75.7-56.2-95.2-2.8-4.7-7.9-7.6-13.4-7.6h-96.6c-12.4 0-19.9 13.8-13 24.1l118 180.1c1.8 2.6 1.7 6.1-.2 8.8l-133.6 189.5c-7.3 10.4 0 24.6 12.7 24.6h96.2c5.3 0 10.2-2.6 13.1-7.1 13.9-21.4 55.2-85 71.4-110.3 3.1-4.8 10.2-4.7 13.2 0 15.7 25.2 54.8 88.3 68.2 109.9 2.8 4.6 7.8 7.4 13.3 7.4h100.3c12.5 0 20-14 12.9-24.4l-131.2-193c-1.8-2.6-1.8-6 0-8.7l115.5-176.9c6.8-10.4-.7-24.1-13.1-24.1z"/><rect height="427.1" rx="15.7" width="118.4" x="2275" y="127.2"/><path d="m687.3 438.1c-.8 36.4 3.1 72.3-13.6 104.6-17 31-51.3 52.2-74.5 40.6-48-24.8-1.9-146.7-94.6-98.1-20.1 11.8-38.1 29.9-50.8 50-25.7 40.4-23.2 86.9-50.2 124.5-13.8 18.8-36.9 28.2-60 28.3-23.1 0-46.2-9.4-60-28.3-27-37.5-24.5-84-50.2-124.5-12.6-20.1-30.6-38.2-50.8-50-92.7-48.5-46.6 73.4-94.6 98.1-23.1 11.6-57.5-9.6-74.4-40.6-16.8-32.3-12.9-68.3-13.6-104.6v-249.6c4.1-46.9 46.9-76.3 86.9-99.5 31.3-18.1 90.2-52.1 90.2-52.1 53.3-32.6 107.2-37.1 166.6-36.9 59.4-.2 113.3 4.3 166.6 36.9 0 0 58.9 34 90.2 52.1 40 23.2 82.7 52.6 86.9 99.5v249.6z"/></g></svg>