<svg viewBox="0 0 2552.5 688" xmlns="http://www.w3.org/2000/svg"><g fill="#dea85f"><path d="m1136.5 321.1c-1.7-7.5-44.6-166-55.6-206.8-1.6-5.6-6.6-9.5-12.4-9.5h-124.9c-7.1 0-12.9 5.8-12.9 12.9v326.2c0 7.1 5.8 12.9 12.9 12.9h70.5c7.2 0 12.9-5.9 12.9-12.9-.6-49.8-2.6-226.1-2.9-238 3.1 12.3 57.3 197.8 70 241.7 1.6 5.5 6.6 9.2 12.4 9.2h60c5.8 0 10.8-3.8 12.4-9.3 13-46.1 70-247 70-247.4 0 .2-2.4 191.5-3 243.7 0 7.2 5.7 13 12.9 13h70.5c7.1 0 12.9-5.8 12.9-12.9v-326.1c0-7.1-5.8-12.9-12.9-12.9h-125.3c-5.9 0-11 3.9-12.4 9.6-10.9 40.9-53.1 199.2-54.8 206.7t0 0z"/><path d="m1596.1 323.3c0 11-2.4 20.8-7.3 29.1-4.8 8.3-11.5 15-19.8 19.8-8.4 4.9-18.2 7.3-29.2 7.3s-20.8-2.4-29.1-7.3-15-11.5-19.8-19.9c-4.9-8.4-7.3-18.1-7.3-28.9v-205.7c0-7.1-5.8-12.9-12.9-12.9h-69.7c-7.1 0-12.9 5.8-12.9 12.9v213.7c0 26.5 6.3 49.5 18.8 69.1s30.2 34.8 52.7 45.6c22.7 10.8 49.4 16.2 80.1 16.2s57.2-5.4 79.9-16.2 40.4-26 52.9-45.6 18.8-42.7 18.8-69.1v-213.7c0-7.1-5.8-12.9-12.9-12.9h-69.7c-7.1 0-12.9 5.8-12.9 12.9v205.7h.3z"/><path d="m2026.2 104.8h-76.9c-4.5 0-8.7 2.3-11 6.2-9.6 16.1-35.4 59-47.1 78.6-2.5 4.2-8.7 4.2-11.1 0-11.5-19.7-36.8-62.4-46.3-78.4-2.3-3.9-6.5-6.3-11-6.3h-79.6c-10.2 0-16.4 11.4-10.7 19.9l97.2 148.4c1.5 2.1 1.4 5-.2 7.3l-110.1 156.2c-6 8.6 0 20.3 10.5 20.3h79.3c4.4 0 8.4-2.1 10.8-5.9 11.5-17.6 45.5-70 58.8-90.9 2.6-4 8.4-3.9 10.9 0 12.9 20.8 45.2 72.8 56.2 90.6 2.3 3.8 6.4 6.1 11 6.1h82.6c10.3 0 16.5-11.5 10.6-20.1l-108.1-159c-1.5-2.1-1.5-4.9 0-7.2l95.2-145.8c5.6-8.6-.6-19.9-10.8-19.9h-.2z"/><rect height="351.9" rx="12.9" width="97.6" x="2085.2" y="104.8"/><path d="m776.9 361c-.7 30 2.6 59.6-11.2 86.2-14 25.5-42.3 43-61.4 33.5-39.6-20.4-1.6-120.9-78-80.8-16.6 9.7-31.4 24.6-41.9 41.2-21.2 33.3-19.1 71.6-41.4 102.6-11.4 15.5-30.4 23.2-49.4 23.3-19 0-38.1-7.7-49.4-23.3-22.2-30.9-20.2-69.2-41.4-102.6-10.4-16.6-25.2-31.5-41.9-41.2-76.4-40-38.4 60.5-78 80.8-19 9.6-47.4-7.9-61.3-33.5-13.8-26.6-10.6-56.3-11.2-86.2v-205.7c3.4-38.6 38.6-62.9 71.6-82 25.8-14.9 74.3-42.9 74.3-42.9 44.2-26.9 88.6-30.6 137.5-30.4 48.9-.2 93.4 3.5 137.3 30.4 0 0 48.5 28 74.3 42.9 33 19.1 68.1 43.3 71.6 82v205.7z"/></g></svg>