<svg viewBox="0 0 700 700.5" xmlns="http://www.w3.org/2000/svg"><g fill="#dea85f"><path d="m618.3 153.9-232.5-134.2c-10.9-6.3-23.3-9.6-35.8-9.6s-24.9 3.3-35.9 9.6l-181.5 104.8-11.6 6.7-39.3 22.7c-22.1 12.8-35.9 36.6-35.9 62.2v268.4c0 25.5 13.7 49.3 35.9 62.2l232.4 134.2c10.9 6.3 23.3 9.6 35.9 9.6s25-3.3 35.9-9.6l232.5-134.2c22.1-12.8 35.8-36.6 35.8-62.1v-268.5c0-25.6-13.7-49.4-35.9-62.2zm-7.2 330.6c0 10.2-5.5 19.7-14.3 24.8l-232.5 134.2c-8.6 5-19.9 5-28.6 0l-201.5-116.3-13.2-7.6-17.8-10.3c-8.8-5.1-14.3-14.6-14.3-24.9v-268.3c0-10.2 5.5-19.7 14.3-24.8l17.8-10.3 97.8-56.5 116.9-67.5c4.4-2.5 9.3-3.8 14.3-3.8s10 1.3 14.3 3.8l232.5 134.2c8.8 5.1 14.3 14.6 14.3 24.8v268.4z"/><path d="m516.1 395.7c-.4 17.6 1.5 34.9-6.6 50.6-8.2 15-24.8 25.2-36 19.6-23.2-12-.9-70.9-45.7-47.4-9.7 5.7-18.4 14.5-24.5 24.2-12.4 19.5-11.2 42-24.3 60.1-6.6 9.1-17.8 13.6-29 13.7-11.2 0-22.4-4.6-29-13.7-13.1-18.1-11.9-40.6-24.3-60.1-6.1-9.7-14.8-18.5-24.5-24.2-44.8-23.5-22.5 35.5-45.7 47.4-11.2 5.6-27.8-4.6-36-19.6-8.1-15.6-6.2-33-6.6-50.6v-120.6c2-22.7 22.7-36.9 42-48.1 15.1-8.7 43.6-25.2 43.6-25.2 25.8-15.7 51.8-17.9 80.5-17.8 28.7 0 54.8 2.1 80.5 17.8 0 0 28.5 16.4 43.6 25.2 19.3 11.2 40 25.4 42 48.1z"/></g></svg>