<?xml version="1.0" encoding="UTF-8"?>
<svg id="ARTWORK" xmlns="http://www.w3.org/2000/svg" version="1.1" viewBox="0 0 3060.3 990.8">
  <!-- Generator: Adobe Illustrator 30.1.0, SVG Export Plug-In . SVG Version: 2.1.1 Build 136)  -->
  <defs>
    <style>
      .st0 {
        fill: #dea85f;
      }
    </style>
  </defs>
  <g>
    <path class="st0" d="M1429.5,540.2c-2.2-9.6-57.4-213.7-71.6-266.2-2-7.2-8.5-12.2-16-12.2h-160.8c-9.1,0-16.6,7.4-16.6,16.6v419.9c0,9.1,7.4,16.6,16.6,16.6h90.7c9.2,0,16.7-7.5,16.6-16.7-.7-64.1-3.3-291-3.7-306.3,4,15.8,73.7,254.6,90.1,311.1,2.1,7.1,8.5,11.9,15.9,11.9h77.2c7.4,0,13.9-4.9,15.9-12,16.8-59.4,90-318,90.1-318.4,0,.2-3.1,246.5-3.9,313.7,0,9.2,7.3,16.8,16.6,16.8h90.7c9.1,0,16.6-7.4,16.6-16.6v-419.9c0-9.1-7.4-16.6-16.6-16.6h-161.3c-7.5,0-14.1,5-16,12.3-14,52.6-68.3,256.5-70.5,266.1h0Z"/>
    <path class="st0" d="M2021.1,543c0,14.2-3.1,26.7-9.3,37.4-6.2,10.7-14.7,19.3-25.5,25.5-10.8,6.3-23.4,9.4-37.5,9.4s-26.7-3.1-37.4-9.4c-10.7-6.3-19.3-14.8-25.5-25.7-6.3-10.8-9.4-23.3-9.4-37.2v-264.7c0-9.1-7.4-16.6-16.6-16.6h-89.7c-9.1,0-16.6,7.4-16.6,16.6v275c0,34,8.1,63.7,24.2,88.9s38.8,44.8,67.9,58.7c29.2,13.9,63.5,20.8,103.1,20.8s73.6-6.9,102.9-20.8c29.3-13.9,52-33.4,68.1-58.7,16.1-25.2,24.2-54.9,24.2-88.9v-275c0-9.1-7.4-16.6-16.6-16.6h-89.7c-9.1,0-16.6,7.4-16.6,16.6v264.7h0Z"/>
    <path class="st0" d="M2574.7,261.8h-99c-5.8,0-11.2,3-14.2,8-12.4,20.7-45.6,75.9-60.6,101.2-3.2,5.4-11.1,5.4-14.3,0-14.7-25.3-47.3-80.3-59.6-101-3-5-8.4-8.1-14.2-8.1h-102.5c-13.2,0-21.1,14.6-13.8,25.6l125.2,191c1.9,2.8,1.8,6.5-.2,9.3l-141.7,201c-7.7,11,.1,26.1,13.5,26.1h102c5.6,0,10.8-2.8,13.9-7.5,14.7-22.7,58.5-90.2,75.7-117,3.3-5.1,10.8-5,14,0,16.6,26.7,58.1,93.7,72.3,116.6,3,4.9,8.3,7.8,14.1,7.8h106.4c13.3,0,21.2-14.9,13.7-25.9l-139.2-204.7c-1.9-2.8-1.9-6.4,0-9.2l122.5-187.6c7.2-11-.7-25.6-13.9-25.6h0Z"/>
    <rect class="st0" x="2650.7" y="261.8" width="125.6" height="453" rx="16.6" ry="16.6"/>
  </g>
  <path class="st0" d="M911.1,589.5c-.8,36.4,3.1,72.3-13.6,104.6-17,31-51.3,52.2-74.5,40.6-48-24.8-1.9-146.7-94.6-98.1-20.1,11.8-38.1,29.9-50.8,50-25.7,40.4-23.2,86.9-50.2,124.5-13.8,18.8-36.9,28.2-60,28.3-23.1,0-46.2-9.4-60-28.3-27-37.5-24.5-84-50.2-124.5-12.6-20.1-30.6-38.2-50.8-50-92.7-48.5-46.6,73.4-94.6,98.1-23.1,11.6-57.5-9.6-74.4-40.6-16.8-32.3-12.9-68.3-13.6-104.6v-249.6c4.1-46.9,46.9-76.3,86.9-99.5,31.3-18.1,90.2-52.1,90.2-52.1,53.3-32.6,107.2-37.1,166.6-36.9,59.4-.2,113.3,4.3,166.6,36.9,0,0,58.9,34,90.2,52.1,40,23.2,82.7,52.6,86.9,99.5v249.6h-.1Z"/>
</svg>